<svg width="27" height="21" viewBox="0 0 27 21" fill="none" xmlns="http://www.w3.org/2000/svg">
<path fill-rule="evenodd" clip-rule="evenodd" d="M1.03846 0C0.46494 0 0 0.52234 0 1.16667C0 1.81099 0.46494 2.33333 1.03846 2.33333H25.9615C26.535 2.33333 27 1.81099 27 1.16667C27 0.52234 26.535 0 25.9615 0H1.03846ZM0 10.5C0 9.85567 0.46494 9.33333 1.03846 9.33333H25.9615C26.535 9.33333 27 9.85567 27 10.5C27 11.1443 26.535 11.6667 25.9615 11.6667H1.03846C0.46494 11.6667 0 11.1443 0 10.5ZM0 19.8333C0 19.1891 0.46494 18.6667 1.03846 18.6667H25.9615C26.535 18.6667 27 19.1891 27 19.8333C27 20.4776 26.535 21 25.9615 21H1.03846C0.46494 21 0 20.4776 0 19.8333Z" fill="#83FF37"/>
</svg>
